# xmcd
#
# Track frame offsets: 
#        150
#        30910
#        46702
#        72623
#        91086
#        109679
#        134627
#        160559
#        180706
#        200531
#        232206
#        262907
#        278145
#
# Disc length: 4047 seconds
#
# Revision: 0
# Processed by: cddbd v1.5.2PL0 Copyright (c) Steve Scherf et al.
# Submitted via: ExactAudioCopy v1.0b3
#
DISCID=ae0fcd0d
DTITLE=The Duke Robillard Jazz Trio - Wobble Walkin'
DYEAR=2012
DGENRE=Jazz and Blues
TTITLE0=Unknown Artist - Wobble Walkin'
TTITLE1=Unknown Artist - I Can't Believe You're In Love With Me
TTITLE2=Unknown Artist - They Can't Take That Away From Me
TTITLE3=Unknown Artist - Sunday Morning
TTITLE4=Unknown Artist - Gee Baby, Ain't I Good To You
TTITLE5=Unknown Artist - Skippy's Dream
TTITLE6=Unknown Artist - All Of Me
TTITLE7=Unknown Artist - Things Ain't What They Used To Be
TTITLE8=Unknown Artist - You'd Be So Nice To Come Home To
TTITLE9=Unknown Artist - Hi-Heel Sneakers
TTITLE10=Unknown Artist - If I Had You
TTITLE11=Unknown Artist - Back Home Again, In Indiana
TTITLE12=Unknown Artist - Jesse's Blues
EXTD=
EXTT0=
EXTT1=
EXTT2=
EXTT3=
EXTT4=
EXTT5=
EXTT6=
EXTT7=
EXTT8=
EXTT9=
EXTT10=
EXTT11=
EXTT12=
PLAYORDER=
